<svg id="Layer_1" viewBox="0 0 309.51 120" xmlns="http://www.w3.org/2000/svg"><defs><clipPath id="clippath"><path fill="none" d="M.5 1h308.51v118H.5z"/></clipPath><style>.cls-1{fill:#fff;fill-rule:evenodd}</style></defs><g clip-path="url(#clippath)"><ellipse cx="71.86" cy="59.88" fill="#00a1c2" rx="45.38" ry="51.01"/><path fill="#24a4c4" fill-rule="evenodd" d="M.5 60c0 32.58 26.86 59 60 59s60-26.42 60-59-26.86-59-60-59S.5 27.42.5 60z"/><path d="M82.38 95.43c.87-.05 1.8-.36 2.78-.98 1.22-.76 2.26-1.71 3.15-2.78 2.36-2.94 4.23-5.46 6.1-8.71.07-.17.11-.35.11-.54 0-.81-.67-1.47-1.5-1.47-.53 0-1 .27-1.26.67-.69 1.19-3.35 5.4-5.64 8.14-1.57 1.87-3.11 2.95-4.31 1.68-3.26-3.39 1.12-28.48 2.08-37.56.68-6.46 2.24-12.88 1.06-19.44-1.91-10.69-11.56-13.07-17.77-5.4-1.56 1.6-2.93 3.58-4.12 5.42-5.88 9.04-9.5 19.11-13.55 28.99-1.34 3.27-2.7 6.54-4.11 9.78-1.09 2.51-1.31 1.74-1.39-.27-.31-8.42 2.65-17.43.41-26.21-1.44-5.67-8.8-6.33-11.66-2.34-2.46 3.43-4.22 7.22-5.9 11.05-.37.85-.6 1.89.59 2.37 1.09.44 1.72-.29 2.24-1.13.57-.93 3.94-7.14 4.96-6.84.93.28.62 1.73.56 2.68-.37 6.29-.77 12.57-1.15 18.57 0 5.11-.39 11.09 1.5 15.85 1.7 4.3 6.4 4.85 8.33.59 4.76-12.11 9.49-24.84 14.37-36.91 1.47-3.62 9.83-23.13 15.35-20.99 3.54 1.37.98 19.6.73 23-.59 7.96-5.58 43.12 8.06 42.77z" class="cls-1"/><path d="M45.42 39.12s0-8.83-7.04-12.79c-6.8-3.84-11.16 1.08-11.37 4.15-.21 3.09 2.23 5.7 5.8 6.3 6.4 1.07 7.55-1.66 12.6 2.34z" class="cls-1"/><path fill="#05161c" d="M151.98 30.49v50.13h25.81v13.1h-41.34V30.49h15.53zm33.16.76c1.59-1.35 3.49-2.03 5.7-2.03s4.18.68 5.74 2.03c1.56 1.36 2.34 3.12 2.34 5.28s-.78 3.95-2.34 5.33c-1.56 1.39-3.48 2.08-5.74 2.08s-4.1-.69-5.7-2.08c-1.59-1.38-2.39-3.16-2.39-5.33s.8-3.93 2.39-5.28zm12.4 20.91v41.55h-13.41V52.17h13.41zm37.43 10.58c-.95-1.32-2.53-1.99-4.73-1.99-1.47 0-2.76.3-3.86.9-1.1.6-1.96 1.48-2.57 2.62-.61 1.14-.92 2.53-.92 4.16v25.29h-13.96V52.17h13.96v6.23c1.22-2.29 2.89-4.06 5.01-5.33s4.73-1.9 7.85-1.9c5.27 0 9.09 1.39 11.48 4.16 2.39 2.77 3.58 6.66 3.58 11.65v26.74h-14.42V68.43c0-2.47-.47-4.37-1.42-5.69zm40.01-39.48v70.46h-13.32V23.26h13.32zm31.88 28.91l-18 17.16 19.84 24.39h-16.26l-20.21-24.39 18.1-17.16h16.54z"/></g></svg>